<svg width="14" height="12" viewBox="0 0 14 12" fill="none" xmlns="http://www.w3.org/2000/svg">
<path d="M0 11.1333V9.83333C0.322222 9.83333 0.597111 9.78333 0.824667 9.68333C1.05267 9.58333 1.28333 9.47511 1.51667 9.35867C1.75 9.24178 2.00844 9.136 2.292 9.04133C2.57511 8.94711 2.92222 8.9 3.33333 8.9C3.75556 8.9 4.10267 8.94711 4.37467 9.04133C4.64711 9.136 4.9 9.24178 5.13333 9.35867C5.36667 9.47511 5.6 9.58333 5.83333 9.68333C6.06667 9.78333 6.34444 9.83333 6.66667 9.83333C6.98889 9.83333 7.26667 9.78333 7.5 9.68333C7.73333 9.58333 7.96667 9.47511 8.2 9.35867C8.43333 9.24178 8.68889 9.136 8.96667 9.04133C9.24444 8.94711 9.58889 8.9 10 8.9C10.4222 8.9 10.7722 8.94711 11.05 9.04133C11.3278 9.136 11.5833 9.24178 11.8167 9.35867C12.05 9.47511 12.2833 9.58333 12.5167 9.68333C12.75 9.78333 13.0222 9.83333 13.3333 9.83333V11.1333C12.9111 11.1333 12.5584 11.0833 12.2753 10.9833C11.9918 10.8833 11.7333 10.7749 11.5 10.658C11.2667 10.5416 11.0389 10.4362 10.8167 10.342C10.5944 10.2473 10.3222 10.2 10 10.2C9.68889 10.2 9.41955 10.2473 9.192 10.342C8.964 10.4362 8.736 10.5416 8.508 10.658C8.28044 10.7749 8.02511 10.8833 7.742 10.9833C7.45844 11.0833 7.1 11.1333 6.66667 11.1333C6.23333 11.1333 5.87489 11.0833 5.59133 10.9833C5.30822 10.8833 5.05289 10.7749 4.82533 10.658C4.59733 10.5416 4.37222 10.4362 4.15 10.342C3.92778 10.2473 3.65556 10.2 3.33333 10.2C3.02222 10.2 2.75289 10.2473 2.52533 10.342C2.29733 10.4362 2.06667 10.5416 1.83333 10.658C1.6 10.7749 1.34178 10.8833 1.05867 10.9833C0.775111 11.0833 0.422222 11.1333 0 11.1333ZM0 8.16667V6.86667C0.322222 6.86667 0.597111 6.81667 0.824667 6.71667C1.05267 6.61667 1.28333 6.50844 1.51667 6.392C1.75 6.27511 2.00844 6.16933 2.292 6.07467C2.57511 5.98044 2.92222 5.93333 3.33333 5.93333C3.75556 5.93333 4.10267 5.98044 4.37467 6.07467C4.64711 6.16933 4.9 6.27511 5.13333 6.392C5.36667 6.50844 5.6 6.61667 5.83333 6.71667C6.06667 6.81667 6.34444 6.86667 6.66667 6.86667C6.98889 6.86667 7.26667 6.81667 7.5 6.71667C7.73333 6.61667 7.96667 6.50844 8.2 6.392C8.43333 6.27511 8.68889 6.16933 8.96667 6.07467C9.24444 5.98044 9.58889 5.93333 10 5.93333C10.4222 5.93333 10.7722 5.98044 11.05 6.07467C11.3278 6.16933 11.5833 6.27511 11.8167 6.392C12.05 6.50844 12.2833 6.61667 12.5167 6.71667C12.75 6.81667 13.0222 6.86667 13.3333 6.86667V8.16667C12.9111 8.16667 12.5584 8.11667 12.2753 8.01667C11.9918 7.91667 11.7333 7.80844 11.5 7.692C11.2667 7.57511 11.0389 7.46933 10.8167 7.37467C10.5944 7.28044 10.3222 7.23333 10 7.23333C9.67778 7.23333 9.40289 7.28044 9.17533 7.37467C8.94733 7.46933 8.71955 7.57511 8.492 7.692C8.264 7.80844 8.01111 7.91667 7.73333 8.01667C7.45556 8.11667 7.1 8.16667 6.66667 8.16667C6.23333 8.16667 5.87489 8.11667 5.59133 8.01667C5.30822 7.91667 5.05289 7.80844 4.82533 7.692C4.59733 7.57511 4.37222 7.46933 4.15 7.37467C3.92778 7.28044 3.65556 7.23333 3.33333 7.23333C3.02222 7.23333 2.75289 7.28044 2.52533 7.37467C2.29733 7.46933 2.06667 7.57511 1.83333 7.692C1.6 7.80844 1.34178 7.91667 1.05867 8.01667C0.775111 8.11667 0.422222 8.16667 0 8.16667ZM0 5.2V3.9C0.322222 3.9 0.597111 3.85 0.824667 3.75C1.05267 3.65 1.28333 3.54156 1.51667 3.42467C1.75 3.30822 2.00844 3.20267 2.292 3.108C2.57511 3.01378 2.92222 2.96667 3.33333 2.96667C3.75556 2.96667 4.10267 3.01378 4.37467 3.108C4.64711 3.20267 4.9 3.30822 5.13333 3.42467C5.36667 3.54156 5.6 3.65 5.83333 3.75C6.06667 3.85 6.34444 3.9 6.66667 3.9C6.98889 3.9 7.26667 3.85 7.5 3.75C7.73333 3.65 7.96667 3.54156 8.2 3.42467C8.43333 3.30822 8.68889 3.20267 8.96667 3.108C9.24444 3.01378 9.58889 2.96667 10 2.96667C10.4222 2.96667 10.7722 3.01378 11.05 3.108C11.3278 3.20267 11.5833 3.30822 11.8167 3.42467C12.05 3.54156 12.2833 3.65 12.5167 3.75C12.75 3.85 13.0222 3.9 13.3333 3.9V5.2C12.9111 5.2 12.5584 5.15 12.2753 5.05C11.9918 4.95 11.7333 4.84178 11.5 4.72533C11.2667 4.60844 11.0389 4.50267 10.8167 4.408C10.5944 4.31378 10.3222 4.26667 10 4.26667C9.68889 4.26667 9.41955 4.31378 9.192 4.408C8.964 4.50267 8.736 4.60844 8.508 4.72533C8.28044 4.84178 8.02511 4.95 7.742 5.05C7.45844 5.15 7.1 5.2 6.66667 5.2C6.23333 5.2 5.87489 5.15 5.59133 5.05C5.30822 4.95 5.05289 4.84178 4.82533 4.72533C4.59733 4.60844 4.37222 4.50267 4.15 4.408C3.92778 4.31378 3.65556 4.26667 3.33333 4.26667C3.02222 4.26667 2.75289 4.31378 2.52533 4.408C2.29733 4.50267 2.06667 4.60844 1.83333 4.72533C1.6 4.84178 1.34178 4.95 1.05867 5.05C0.775111 5.15 0.422222 5.2 0 5.2ZM0 2.23333V0.933333C0.322222 0.933333 0.597111 0.883333 0.824667 0.783333C1.05267 0.683333 1.28333 0.574889 1.51667 0.458C1.75 0.341555 2.00844 0.236 2.292 0.141333C2.57511 0.047111 2.92222 0 3.33333 0C3.75556 0 4.10267 0.047111 4.37467 0.141333C4.64711 0.236 4.9 0.341555 5.13333 0.458C5.36667 0.574889 5.6 0.683333 5.83333 0.783333C6.06667 0.883333 6.34444 0.933333 6.66667 0.933333C6.98889 0.933333 7.26667 0.883333 7.5 0.783333C7.73333 0.683333 7.96667 0.574889 8.2 0.458C8.43333 0.341555 8.68889 0.236 8.96667 0.141333C9.24444 0.047111 9.58889 0 10 0C10.4222 0 10.7722 0.047111 11.05 0.141333C11.3278 0.236 11.5833 0.341555 11.8167 0.458C12.05 0.574889 12.2833 0.683333 12.5167 0.783333C12.75 0.883333 13.0222 0.933333 13.3333 0.933333V2.23333C12.9111 2.23333 12.5584 2.18333 12.2753 2.08333C11.9918 1.98333 11.7333 1.87489 11.5 1.758C11.2667 1.64156 11.0389 1.536 10.8167 1.44133C10.5944 1.34711 10.3222 1.3 10 1.3C9.68889 1.3 9.41955 1.34711 9.192 1.44133C8.964 1.536 8.736 1.64156 8.508 1.758C8.28044 1.87489 8.02511 1.98333 7.742 2.08333C7.45844 2.18333 7.1 2.23333 6.66667 2.23333C6.23333 2.23333 5.87489 2.18333 5.59133 2.08333C5.30822 1.98333 5.05289 1.87489 4.82533 1.758C4.59733 1.64156 4.37222 1.536 4.15 1.44133C3.92778 1.34711 3.65556 1.3 3.33333 1.3C3.02222 1.3 2.75289 1.34711 2.52533 1.44133C2.29733 1.536 2.06667 1.64156 1.83333 1.758C1.6 1.87489 1.34178 1.98333 1.05867 2.08333C0.775111 2.18333 0.422222 2.23333 0 2.23333Z" fill="#1C1B1F"/>
</svg>
