<svg width="14" height="14" viewBox="0 0 14 14" fill="none" xmlns="http://www.w3.org/2000/svg">
<path d="M7.96667 13.2667C7.8 13.3556 7.63067 13.3693 7.45867 13.308C7.28622 13.2471 7.15556 13.1333 7.06667 12.9667L6.06667 10.9667C5.97778 10.8 5.964 10.6307 6.02533 10.4587C6.08622 10.2862 6.2 10.1556 6.36667 10.0667C6.53333 9.97778 6.70267 9.964 6.87467 10.0253C7.04711 10.0862 7.17778 10.2 7.26667 10.3667L8.26667 12.3667C8.35555 12.5333 8.36956 12.7027 8.30867 12.8747C8.24733 13.0471 8.13333 13.1778 7.96667 13.2667ZM11.9667 13.2667C11.8 13.3556 11.6307 13.3693 11.4587 13.308C11.2862 13.2471 11.1556 13.1333 11.0667 12.9667L10.0667 10.9667C9.97778 10.8 9.964 10.6307 10.0253 10.4587C10.0862 10.2862 10.2 10.1556 10.3667 10.0667C10.5333 9.97778 10.7027 9.964 10.8747 10.0253C11.0471 10.0862 11.1778 10.2 11.2667 10.3667L12.2667 12.3667C12.3556 12.5333 12.3696 12.7027 12.3087 12.8747C12.2473 13.0471 12.1333 13.1778 11.9667 13.2667ZM3.96667 13.2667C3.8 13.3556 3.63067 13.3693 3.45867 13.308C3.28622 13.2471 3.15556 13.1333 3.06667 12.9667L2.06667 10.9667C1.97778 10.8 1.964 10.6307 2.02533 10.4587C2.08622 10.2862 2.2 10.1556 2.36667 10.0667C2.53333 9.97778 2.70267 9.964 2.87467 10.0253C3.04711 10.0862 3.17778 10.2 3.26667 10.3667L4.26667 12.3667C4.35556 12.5333 4.36956 12.7027 4.30867 12.8747C4.24733 13.0471 4.13333 13.1778 3.96667 13.2667ZM3.66667 9.33333C2.65556 9.33333 1.79178 8.97489 1.07533 8.258C0.358444 7.54156 0 6.67778 0 5.66667C0 4.74444 0.305556 3.93889 0.916667 3.25C1.52778 2.56111 2.28333 2.15556 3.18333 2.03333C3.53889 1.4 4.02511 0.902667 4.642 0.541333C5.25844 0.180444 5.93333 0 6.66667 0C7.66667 0 8.536 0.319556 9.27467 0.958667C10.0138 1.59733 10.4611 2.39444 10.6167 3.35C11.3833 3.41667 12.0278 3.73333 12.55 4.3C13.0722 4.86667 13.3333 5.54444 13.3333 6.33333C13.3333 7.16667 13.0418 7.87511 12.4587 8.45867C11.8751 9.04178 11.1667 9.33333 10.3333 9.33333H3.66667ZM3.66667 8H10.3333C10.8 8 11.1944 7.83889 11.5167 7.51667C11.8389 7.19444 12 6.8 12 6.33333C12 5.86667 11.8389 5.47222 11.5167 5.15C11.1944 4.82778 10.8 4.66667 10.3333 4.66667H9.33333V4C9.33333 3.26667 9.07222 2.63889 8.55 2.11667C8.02778 1.59444 7.4 1.33333 6.66667 1.33333C6.13333 1.33333 5.64711 1.47778 5.208 1.76667C4.76933 2.05556 4.43889 2.44444 4.21667 2.93333L4.05 3.33333H3.63333C3 3.35556 2.45844 3.59156 2.00867 4.04133C1.55844 4.49156 1.33333 5.03333 1.33333 5.66667C1.33333 6.31111 1.56111 6.86111 2.01667 7.31667C2.47222 7.77222 3.02222 8 3.66667 8Z" fill="#1C1B1F"/>
</svg>
