<svg width="15" height="15" viewBox="0 0 15 15" fill="none" xmlns="http://www.w3.org/2000/svg">
<path d="M7.33333 9.33333C7.88889 9.33333 8.36111 9.13889 8.75 8.75C9.13889 8.36111 9.33333 7.88889 9.33333 7.33333C9.33333 6.77778 9.13889 6.30556 8.75 5.91667C8.36111 5.52778 7.88889 5.33333 7.33333 5.33333C6.77778 5.33333 6.30556 5.52778 5.91667 5.91667C5.52778 6.30556 5.33333 6.77778 5.33333 7.33333C5.33333 7.88889 5.52778 8.36111 5.91667 8.75C6.30556 9.13889 6.77778 9.33333 7.33333 9.33333ZM7.33333 10.6667C6.41111 10.6667 5.62511 10.3416 4.97533 9.69133C4.32511 9.04156 4 8.25556 4 7.33333C4 6.41111 4.32511 5.62489 4.97533 4.97467C5.62511 4.32489 6.41111 4 7.33333 4C8.25556 4 9.04178 4.32489 9.692 4.97467C10.3418 5.62489 10.6667 6.41111 10.6667 7.33333C10.6667 8.25556 10.3418 9.04156 9.692 9.69133C9.04178 10.3416 8.25556 10.6667 7.33333 10.6667ZM0.666667 8C0.477778 8 0.319556 7.936 0.192 7.808C0.064 7.68044 0 7.52222 0 7.33333C0 7.14444 0.064 6.986 0.192 6.858C0.319556 6.73044 0.477778 6.66667 0.666667 6.66667H2C2.18889 6.66667 2.34733 6.73044 2.47533 6.858C2.60289 6.986 2.66667 7.14444 2.66667 7.33333C2.66667 7.52222 2.60289 7.68044 2.47533 7.808C2.34733 7.936 2.18889 8 2 8H0.666667ZM12.6667 8C12.4778 8 12.3196 7.936 12.192 7.808C12.064 7.68044 12 7.52222 12 7.33333C12 7.14444 12.064 6.986 12.192 6.858C12.3196 6.73044 12.4778 6.66667 12.6667 6.66667H14C14.1889 6.66667 14.3471 6.73044 14.4747 6.858C14.6027 6.986 14.6667 7.14444 14.6667 7.33333C14.6667 7.52222 14.6027 7.68044 14.4747 7.808C14.3471 7.936 14.1889 8 14 8H12.6667ZM7.33333 2.66667C7.14444 2.66667 6.98622 2.60267 6.85867 2.47467C6.73067 2.34711 6.66667 2.18889 6.66667 2V0.666667C6.66667 0.477778 6.73067 0.319333 6.85867 0.191333C6.98622 0.0637777 7.14444 0 7.33333 0C7.52222 0 7.68067 0.0637777 7.80867 0.191333C7.93622 0.319333 8 0.477778 8 0.666667V2C8 2.18889 7.93622 2.34711 7.80867 2.47467C7.68067 2.60267 7.52222 2.66667 7.33333 2.66667ZM7.33333 14.6667C7.14444 14.6667 6.98622 14.6027 6.85867 14.4747C6.73067 14.3471 6.66667 14.1889 6.66667 14V12.6667C6.66667 12.4778 6.73067 12.3196 6.85867 12.192C6.98622 12.064 7.14444 12 7.33333 12C7.52222 12 7.68067 12.064 7.80867 12.192C7.93622 12.3196 8 12.4778 8 12.6667V14C8 14.1889 7.93622 14.3471 7.80867 14.4747C7.68067 14.6027 7.52222 14.6667 7.33333 14.6667ZM3.1 4.03333L2.38333 3.33333C2.25 3.21111 2.186 3.05556 2.19133 2.86667C2.19711 2.67778 2.26111 2.51667 2.38333 2.38333C2.51667 2.25 2.67778 2.18333 2.86667 2.18333C3.05556 2.18333 3.21111 2.25 3.33333 2.38333L4.03333 3.1C4.15556 3.23333 4.21667 3.38889 4.21667 3.56667C4.21667 3.74444 4.15556 3.9 4.03333 4.03333C3.91111 4.16667 3.75844 4.23044 3.57533 4.22467C3.39178 4.21933 3.23333 4.15556 3.1 4.03333ZM11.3333 12.2833L10.6333 11.5667C10.5111 11.4333 10.45 11.2751 10.45 11.092C10.45 10.9084 10.5111 10.7556 10.6333 10.6333C10.7556 10.5 10.9084 10.4362 11.092 10.442C11.2751 10.4473 11.4333 10.5111 11.5667 10.6333L12.2833 11.3333C12.4167 11.4556 12.4807 11.6111 12.4753 11.8C12.4696 11.9889 12.4056 12.15 12.2833 12.2833C12.15 12.4167 11.9889 12.4833 11.8 12.4833C11.6111 12.4833 11.4556 12.4167 11.3333 12.2833ZM10.6333 4.03333C10.5 3.91111 10.4362 3.75822 10.442 3.57467C10.4473 3.39156 10.5111 3.23333 10.6333 3.1L11.3333 2.38333C11.4556 2.25 11.6111 2.186 11.8 2.19133C11.9889 2.19711 12.15 2.26111 12.2833 2.38333C12.4167 2.51667 12.4833 2.67778 12.4833 2.86667C12.4833 3.05556 12.4167 3.21111 12.2833 3.33333L11.5667 4.03333C11.4333 4.15556 11.2778 4.21667 11.1 4.21667C10.9222 4.21667 10.7667 4.15556 10.6333 4.03333ZM2.38333 12.2833C2.25 12.15 2.18333 11.9889 2.18333 11.8C2.18333 11.6111 2.25 11.4556 2.38333 11.3333L3.1 10.6333C3.23333 10.5111 3.39178 10.45 3.57533 10.45C3.75844 10.45 3.91111 10.5111 4.03333 10.6333C4.16667 10.7556 4.23067 10.9084 4.22533 11.092C4.21956 11.2751 4.15556 11.4333 4.03333 11.5667L3.33333 12.2833C3.21111 12.4167 3.05556 12.4804 2.86667 12.4747C2.67778 12.4693 2.51667 12.4056 2.38333 12.2833Z" fill="#1C1B1F"/>
</svg>
