<svg width="14" height="12" viewBox="0 0 14 12" fill="none" xmlns="http://www.w3.org/2000/svg">
<path d="M6.33333 11.3333C5.77778 11.3333 5.30556 11.1389 4.91667 10.75C4.52778 10.3611 4.33333 9.88889 4.33333 9.33333H5.66667C5.66667 9.52222 5.73067 9.68044 5.85867 9.808C5.98622 9.936 6.14444 10 6.33333 10C6.52222 10 6.68067 9.936 6.80867 9.808C6.93622 9.68044 7 9.52222 7 9.33333C7 9.14444 6.93622 8.98622 6.80867 8.85867C6.68067 8.73067 6.52222 8.66667 6.33333 8.66667H0V7.33333H6.33333C6.88889 7.33333 7.36111 7.52778 7.75 7.91667C8.13889 8.30556 8.33333 8.77778 8.33333 9.33333C8.33333 9.88889 8.13889 10.3611 7.75 10.75C7.36111 11.1389 6.88889 11.3333 6.33333 11.3333ZM0 4.66667V3.33333H9C9.28889 3.33333 9.52778 3.23889 9.71667 3.05C9.90556 2.86111 10 2.62222 10 2.33333C10 2.04444 9.90556 1.80556 9.71667 1.61667C9.52778 1.42778 9.28889 1.33333 9 1.33333C8.71111 1.33333 8.47222 1.42778 8.28333 1.61667C8.09444 1.80556 8 2.04444 8 2.33333H6.66667C6.66667 1.67778 6.89156 1.12489 7.34133 0.674667C7.79155 0.224889 8.34444 0 9 0C9.65555 0 10.2084 0.224889 10.6587 0.674667C11.1084 1.12489 11.3333 1.67778 11.3333 2.33333C11.3333 2.98889 11.1084 3.54156 10.6587 3.99133C10.2084 4.44156 9.65555 4.66667 9 4.66667H0ZM11 10V8.66667C11.2889 8.66667 11.5278 8.57222 11.7167 8.38333C11.9056 8.19444 12 7.95555 12 7.66667C12 7.37778 11.9056 7.13889 11.7167 6.95C11.5278 6.76111 11.2889 6.66667 11 6.66667H0V5.33333H11C11.6556 5.33333 12.2084 5.55822 12.6587 6.008C13.1084 6.45822 13.3333 7.01111 13.3333 7.66667C13.3333 8.32222 13.1084 8.87511 12.6587 9.32533C12.2084 9.77511 11.6556 10 11 10Z" fill="#1C1B1F"/>
</svg>
