<svg width="12" height="14" viewBox="0 0 12 14" fill="none" xmlns="http://www.w3.org/2000/svg">
<path d="M1.33333 13.3333C0.966667 13.3333 0.652667 13.2029 0.391333 12.942C0.130444 12.6807 0 12.3667 0 12V2.66667C0 2.3 0.130444 1.98622 0.391333 1.72533C0.652667 1.464 0.966667 1.33333 1.33333 1.33333H2V0H3.33333V1.33333H8.66667V0H10V1.33333H10.6667C11.0333 1.33333 11.3473 1.464 11.6087 1.72533C11.8696 1.98622 12 2.3 12 2.66667V12C12 12.3667 11.8696 12.6807 11.6087 12.942C11.3473 13.2029 11.0333 13.3333 10.6667 13.3333H1.33333ZM1.33333 12H10.6667V5.33333H1.33333V12ZM1.33333 4H10.6667V2.66667H1.33333V4ZM6 8C5.81111 8 5.65289 7.936 5.52533 7.808C5.39733 7.68044 5.33333 7.52222 5.33333 7.33333C5.33333 7.14444 5.39733 6.986 5.52533 6.858C5.65289 6.73044 5.81111 6.66667 6 6.66667C6.18889 6.66667 6.34733 6.73044 6.47533 6.858C6.60289 6.986 6.66667 7.14444 6.66667 7.33333C6.66667 7.52222 6.60289 7.68044 6.47533 7.808C6.34733 7.936 6.18889 8 6 8ZM3.33333 8C3.14444 8 2.986 7.936 2.858 7.808C2.73044 7.68044 2.66667 7.52222 2.66667 7.33333C2.66667 7.14444 2.73044 6.986 2.858 6.858C2.986 6.73044 3.14444 6.66667 3.33333 6.66667C3.52222 6.66667 3.68067 6.73044 3.80867 6.858C3.93622 6.986 4 7.14444 4 7.33333C4 7.52222 3.93622 7.68044 3.80867 7.808C3.68067 7.936 3.52222 8 3.33333 8ZM8.66667 8C8.47778 8 8.31956 7.936 8.192 7.808C8.064 7.68044 8 7.52222 8 7.33333C8 7.14444 8.064 6.986 8.192 6.858C8.31956 6.73044 8.47778 6.66667 8.66667 6.66667C8.85556 6.66667 9.01378 6.73044 9.14133 6.858C9.26933 6.986 9.33333 7.14444 9.33333 7.33333C9.33333 7.52222 9.26933 7.68044 9.14133 7.808C9.01378 7.936 8.85556 8 8.66667 8ZM6 10.6667C5.81111 10.6667 5.65289 10.6027 5.52533 10.4747C5.39733 10.3471 5.33333 10.1889 5.33333 10C5.33333 9.81111 5.39733 9.65289 5.52533 9.52533C5.65289 9.39733 5.81111 9.33333 6 9.33333C6.18889 9.33333 6.34733 9.39733 6.47533 9.52533C6.60289 9.65289 6.66667 9.81111 6.66667 10C6.66667 10.1889 6.60289 10.3471 6.47533 10.4747C6.34733 10.6027 6.18889 10.6667 6 10.6667ZM3.33333 10.6667C3.14444 10.6667 2.986 10.6027 2.858 10.4747C2.73044 10.3471 2.66667 10.1889 2.66667 10C2.66667 9.81111 2.73044 9.65289 2.858 9.52533C2.986 9.39733 3.14444 9.33333 3.33333 9.33333C3.52222 9.33333 3.68067 9.39733 3.80867 9.52533C3.93622 9.65289 4 9.81111 4 10C4 10.1889 3.93622 10.3471 3.80867 10.4747C3.68067 10.6027 3.52222 10.6667 3.33333 10.6667ZM8.66667 10.6667C8.47778 10.6667 8.31956 10.6027 8.192 10.4747C8.064 10.3471 8 10.1889 8 10C8 9.81111 8.064 9.65289 8.192 9.52533C8.31956 9.39733 8.47778 9.33333 8.66667 9.33333C8.85556 9.33333 9.01378 9.39733 9.14133 9.52533C9.26933 9.65289 9.33333 9.81111 9.33333 10C9.33333 10.1889 9.26933 10.3471 9.14133 10.4747C9.01378 10.6027 8.85556 10.6667 8.66667 10.6667Z" fill="#1C1B1F"/>
</svg>
