<svg width="14" height="14" viewBox="0 0 14 14" fill="none" xmlns="http://www.w3.org/2000/svg">
<path d="M8.83333 9.76667L5.96667 6.9V3.3H7.3V6.36667L9.76667 8.83333L8.83333 9.76667ZM0.533333 9.35C0.388889 9.02778 0.272222 8.69444 0.183333 8.35C0.0944445 8.00556 0.0333333 7.65555 0 7.3H1.35C1.38333 7.53333 1.43044 7.76667 1.49133 8C1.55267 8.23333 1.62778 8.46111 1.71667 8.68333L0.533333 9.35ZM0 5.96667C0.0333333 5.61111 0.0944445 5.25822 0.183333 4.908C0.272222 4.55822 0.394444 4.22222 0.55 3.9L1.71667 4.56667C1.62778 4.78889 1.55267 5.01667 1.49133 5.25C1.43044 5.48333 1.38333 5.72222 1.35 5.96667H0ZM2.75 12.0667C2.45 11.8444 2.17222 11.6027 1.91667 11.3413C1.66111 11.0804 1.42222 10.8 1.2 10.5L2.36667 9.83333C2.52222 10.0333 2.68622 10.2193 2.85867 10.3913C3.03067 10.5638 3.21667 10.7278 3.41667 10.8833L2.75 12.0667ZM2.38333 3.41667L1.2 2.75C1.42222 2.45 1.66111 2.17222 1.91667 1.91667C2.17222 1.66111 2.45 1.42222 2.75 1.2L3.41667 2.38333C3.22778 2.53889 3.04733 2.70267 2.87533 2.87467C2.70289 3.04711 2.53889 3.22778 2.38333 3.41667ZM5.96667 13.2667C5.61111 13.2333 5.25844 13.1722 4.90867 13.0833C4.55844 12.9944 4.22222 12.8722 3.9 12.7167L4.56667 11.55C4.78889 11.6389 5.01667 11.7138 5.25 11.7747C5.48333 11.836 5.72222 11.8833 5.96667 11.9167V13.2667ZM4.56667 1.71667L3.9 0.55C4.22222 0.394444 4.55844 0.272222 4.90867 0.183333C5.25844 0.0944445 5.61111 0.0333333 5.96667 0V1.35C5.72222 1.38333 5.48333 1.43044 5.25 1.49133C5.01667 1.55267 4.78889 1.62778 4.56667 1.71667ZM7.3 13.2667V11.9167C7.54444 11.8833 7.78333 11.836 8.01667 11.7747C8.25 11.7138 8.47778 11.6389 8.7 11.55L9.36667 12.7167C9.04444 12.8722 8.70844 12.9944 8.35867 13.0833C8.00844 13.1722 7.65555 13.2333 7.3 13.2667ZM8.7 1.71667C8.47778 1.62778 8.25 1.55267 8.01667 1.49133C7.78333 1.43044 7.54444 1.38333 7.3 1.35V0C7.65555 0.0333333 8.00844 0.0944445 8.35867 0.183333C8.70844 0.272222 9.04444 0.394444 9.36667 0.55L8.7 1.71667ZM10.5167 12.0667L9.85 10.8833C10.0389 10.7278 10.2196 10.5638 10.392 10.3913C10.564 10.2193 10.7278 10.0389 10.8833 9.85L12.0667 10.5167C11.8444 10.8167 11.6056 11.0971 11.35 11.358C11.0944 11.6193 10.8167 11.8556 10.5167 12.0667ZM10.8833 3.41667C10.7278 3.22778 10.564 3.04711 10.392 2.87467C10.2196 2.70267 10.0389 2.53889 9.85 2.38333L10.5167 1.2C10.8167 1.41111 11.0944 1.64444 11.35 1.9C11.6056 2.15556 11.8389 2.43333 12.05 2.73333L10.8833 3.41667ZM11.9167 5.96667C11.8833 5.72222 11.8362 5.48333 11.7753 5.25C11.714 5.01667 11.6389 4.78889 11.55 4.56667L12.7167 3.88333C12.8611 4.21667 12.9807 4.55822 13.0753 4.908C13.1696 5.25822 13.2333 5.61111 13.2667 5.96667H11.9167ZM12.7167 9.36667L11.55 8.7C11.6389 8.47778 11.714 8.25 11.7753 8.01667C11.8362 7.78333 11.8833 7.54444 11.9167 7.3H13.2667C13.2333 7.65555 13.1722 8.00822 13.0833 8.358C12.9944 8.70822 12.8722 9.04444 12.7167 9.36667Z" fill="#1C1B1F"/>
</svg>
