<svg width="15" height="14" viewBox="0 0 15 14" fill="none" xmlns="http://www.w3.org/2000/svg">
<path d="M8.06667 13.3333H6.33333L6.66667 13.1253C6.88889 12.9862 7.13067 12.8307 7.392 12.6587C7.65289 12.4862 7.89444 12.3307 8.11667 12.192L8.45 11.9833C9.35 11.9167 10.1807 11.6444 10.942 11.1667C11.7029 10.6889 12.3056 10.05 12.75 9.25C11.7944 9.16111 10.8889 8.91955 10.0333 8.52533C9.17778 8.13067 8.41111 7.59444 7.73333 6.91667C7.05556 6.23889 6.51667 5.47222 6.11667 4.61667C5.71667 3.76111 5.47778 2.85556 5.4 1.9C4.54445 2.37778 3.87511 3.036 3.392 3.87467C2.90844 4.71378 2.66667 5.62222 2.66667 6.6V6.8L2.46667 6.89133C2.33333 6.95267 2.18622 7.01667 2.02533 7.08333C1.864 7.15 1.71667 7.21378 1.58333 7.27467L1.38333 7.36667C1.36111 7.24444 1.34733 7.11667 1.342 6.98333C1.33622 6.85 1.33333 6.72222 1.33333 6.6C1.33333 4.97778 1.85 3.54711 2.88333 2.308C3.91667 1.06933 5.23333 0.3 6.83333 0C6.63333 1.1 6.69444 2.17489 7.01667 3.22467C7.33889 4.27489 7.89444 5.19444 8.68333 5.98333C9.47222 6.77222 10.3918 7.32778 11.442 7.65C12.4918 7.97222 13.5667 8.03333 14.6667 7.83333C14.3778 9.43333 13.6111 10.75 12.3667 11.7833C11.1222 12.8167 9.68889 13.3333 8.06667 13.3333ZM3.33333 12H6.33333C6.61111 12 6.84711 11.9027 7.04133 11.708C7.236 11.5138 7.33333 11.2778 7.33333 11C7.33333 10.7222 7.23889 10.4862 7.05 10.292C6.86111 10.0973 6.63333 10 6.36667 10H5.5L5.16667 9.2C5.01111 8.83333 4.76667 8.54178 4.43333 8.32533C4.1 8.10844 3.73333 8 3.33333 8C2.77778 8 2.30556 8.19178 1.91667 8.57533C1.52778 8.95844 1.33333 9.43333 1.33333 10C1.33333 10.5556 1.52778 11.0278 1.91667 11.4167C2.30556 11.8056 2.77778 12 3.33333 12ZM3.33333 13.3333C2.41111 13.3333 1.62511 13.0084 0.975333 12.3587C0.325111 11.7084 0 10.9222 0 10C0 9.07778 0.325111 8.29156 0.975333 7.64133C1.62511 6.99156 2.41111 6.66667 3.33333 6.66667C4 6.66667 4.60844 6.84711 5.15867 7.208C5.70844 7.56933 6.11667 8.05556 6.38333 8.66667C7.01667 8.68889 7.55556 8.92489 8 9.37467C8.44444 9.82489 8.66667 10.3667 8.66667 11C8.66667 11.6444 8.43889 12.1944 7.98333 12.65C7.52778 13.1056 6.97778 13.3333 6.33333 13.3333H3.33333Z" fill="#1C1B1F"/>
</svg>
