<svg width="16" height="16" viewBox="0 0 16 16" fill="none" xmlns="http://www.w3.org/2000/svg">
<path d="M11.4667 10.05C11.3 9.98333 11.1778 9.86378 11.1 9.69133C11.0222 9.51933 11.0167 9.35 11.0833 9.18333C11.1611 8.99444 11.2167 8.79711 11.25 8.59133C11.2833 8.386 11.3 8.15 11.3 7.88333C11.3 7.05 10.9833 6.30822 10.35 5.658C9.71667 5.00822 8.96667 4.68333 8.1 4.68333C7.87778 4.68333 7.65844 4.7 7.442 4.73333C7.22511 4.76667 7.01111 4.82778 6.8 4.91667C6.62222 4.99444 6.45 4.99444 6.28333 4.91667C6.11667 4.83889 6 4.71111 5.93333 4.53333C5.86667 4.35556 5.86956 4.18333 5.942 4.01667C6.014 3.85 6.13889 3.73333 6.31667 3.66667C6.60556 3.55556 6.89444 3.47489 7.18333 3.42467C7.47222 3.37489 7.77778 3.35 8.1 3.35C9.35556 3.35 10.4249 3.79444 11.308 4.68333C12.1916 5.57222 12.6333 6.63889 12.6333 7.88333C12.6333 8.23889 12.614 8.55556 12.5753 8.83333C12.5362 9.11111 12.4611 9.39444 12.35 9.68333C12.2833 9.85 12.164 9.96667 11.992 10.0333C11.8196 10.1 11.6444 10.1056 11.4667 10.05ZM8 12.6667C6.7 12.6667 5.59733 12.2138 4.692 11.308C3.78622 10.4027 3.33333 9.3 3.33333 8C3.33333 7.54444 3.40267 7.08622 3.54133 6.62533C3.68044 6.164 3.89444 5.72778 4.18333 5.31667C4.23889 5.22778 4.314 5.15822 4.40867 5.108C4.50289 5.05822 4.6 5.03333 4.7 5.03333C4.82222 5.02222 4.94178 5.05 5.05867 5.11667C5.17511 5.18333 5.26111 5.27222 5.31667 5.38333C5.93889 6.51667 6.7 7.53044 7.6 8.42467C8.5 9.31933 9.51667 10.0667 10.65 10.6667C10.75 10.7222 10.8304 10.7971 10.8913 10.8913C10.9527 10.986 10.9889 11.0944 11 11.2167C11.0111 11.3278 10.9889 11.4333 10.9333 11.5333C10.8778 11.6333 10.8056 11.7167 10.7167 11.7833C10.3056 12.0722 9.86956 12.2918 9.40867 12.442C8.94733 12.5918 8.47778 12.6667 8 12.6667ZM8 11.3333C8.15556 11.3333 8.30844 11.3249 8.45867 11.308C8.60844 11.2916 8.76667 11.2556 8.93333 11.2C8.1 10.6667 7.33889 10.0556 6.65 9.36667C5.96111 8.67778 5.34444 7.92222 4.8 7.1C4.75556 7.25556 4.72222 7.40556 4.7 7.55C4.67778 7.69444 4.66667 7.84444 4.66667 8C4.66667 8.94444 4.99733 9.73333 5.65867 10.3667C6.31956 11 7.1 11.3222 8 11.3333ZM8 2C7.81111 2 7.65289 1.936 7.52533 1.808C7.39733 1.68044 7.33333 1.52222 7.33333 1.33333V0.666667C7.33333 0.477778 7.39733 0.319333 7.52533 0.191333C7.65289 0.0637778 7.81111 0 8 0C8.18889 0 8.34733 0.0637778 8.47533 0.191333C8.60289 0.319333 8.66667 0.477778 8.66667 0.666667V1.33333C8.66667 1.52222 8.60289 1.68044 8.47533 1.808C8.34733 1.936 8.18889 2 8 2ZM8 16C7.81111 16 7.65289 15.936 7.52533 15.808C7.39733 15.6804 7.33333 15.5222 7.33333 15.3333V14.6667C7.33333 14.4778 7.39733 14.3196 7.52533 14.192C7.65289 14.064 7.81111 14 8 14C8.18889 14 8.34733 14.064 8.47533 14.192C8.60289 14.3196 8.66667 14.4778 8.66667 14.6667V15.3333C8.66667 15.5222 8.60289 15.6804 8.47533 15.808C8.34733 15.936 8.18889 16 8 16ZM12.2333 3.75C12.1 3.61667 12.0333 3.45822 12.0333 3.27467C12.0333 3.09156 12.1 2.93333 12.2333 2.8L12.7 2.33333C12.8333 2.2 12.9944 2.13333 13.1833 2.13333C13.3722 2.13333 13.5333 2.2 13.6667 2.33333C13.8 2.46667 13.864 2.62489 13.8587 2.808C13.8529 2.99156 13.7833 3.15 13.65 3.28333L13.1833 3.75C13.05 3.88333 12.8916 3.95 12.708 3.95C12.5249 3.95 12.3667 3.88333 12.2333 3.75ZM2.35 13.65C2.21667 13.5167 2.15 13.3584 2.15 13.1753C2.15 12.9918 2.21667 12.8333 2.35 12.7L2.81667 12.2333C2.93889 12.1111 3.08889 12.05 3.26667 12.05C3.44444 12.05 3.6 12.1111 3.73333 12.2333C3.86667 12.3556 3.93889 12.5111 3.95 12.7C3.96111 12.8889 3.9 13.05 3.76667 13.1833L3.3 13.65C3.16667 13.7833 3.00844 13.85 2.82533 13.85C2.64178 13.85 2.48333 13.7833 2.35 13.65ZM14.6667 8.66667C14.4778 8.66667 14.3196 8.60267 14.192 8.47467C14.064 8.34711 14 8.18889 14 8C14 7.81111 14.064 7.65267 14.192 7.52467C14.3196 7.39711 14.4778 7.33333 14.6667 7.33333H15.3333C15.5222 7.33333 15.6804 7.39711 15.808 7.52467C15.936 7.65267 16 7.81111 16 8C16 8.18889 15.936 8.34711 15.808 8.47467C15.6804 8.60267 15.5222 8.66667 15.3333 8.66667H14.6667ZM0.666667 8.66667C0.477778 8.66667 0.319556 8.60267 0.192 8.47467C0.064 8.34711 0 8.18889 0 8C0 7.81111 0.064 7.65267 0.192 7.52467C0.319556 7.39711 0.477778 7.33333 0.666667 7.33333H1.33333C1.52222 7.33333 1.68067 7.39711 1.80867 7.52467C1.93622 7.65267 2 7.81111 2 8C2 8.18889 1.93622 8.34711 1.80867 8.47467C1.68067 8.60267 1.52222 8.66667 1.33333 8.66667H0.666667ZM12.7 13.65L12.2333 13.1833C12.1111 13.0611 12.05 12.9111 12.05 12.7333C12.05 12.5556 12.1111 12.4 12.2333 12.2667C12.3556 12.1333 12.5111 12.0611 12.7 12.05C12.8889 12.0389 13.05 12.1 13.1833 12.2333L13.65 12.7C13.7833 12.8333 13.8473 12.9889 13.842 13.1667C13.8362 13.3444 13.7722 13.5 13.65 13.6333C13.5278 13.7667 13.3722 13.836 13.1833 13.8413C12.9944 13.8471 12.8333 13.7833 12.7 13.65ZM2.81667 3.75L2.35 3.28333C2.21667 3.15 2.15267 2.99711 2.158 2.82467C2.16378 2.65267 2.22778 2.5 2.35 2.36667C2.47222 2.23333 2.62778 2.16111 2.81667 2.15C3.00556 2.13889 3.16667 2.2 3.3 2.33333L3.76667 2.8C3.9 2.93333 3.96667 3.09156 3.96667 3.27467C3.96667 3.45822 3.9 3.61667 3.76667 3.75C3.63333 3.88333 3.47511 3.95 3.292 3.95C3.10844 3.95 2.95 3.88333 2.81667 3.75Z" fill="#1C1B1F"/>
</svg>
